HIERARCHY
ROOT Hips
{
	OFFSET 0.000000 108.787201 0.000000
	CHANNELS 6 Xposition Yposition Zposition Xrotation Yrotation Zrotation
	JOINT Spine
	{
		OFFSET 0.000000 7.526100 0.589700
		CHANNELS 3 Xrotation Yrotation Zrotation
		JOINT Spine1
		{
			OFFSET 0.000000 12.189598 -0.296600
			CHANNELS 3 Xrotation Yrotation Zrotation
			JOINT Spine2
			{
				OFFSET 0.000000 15.963593 -0.177000
				CHANNELS 3 Xrotation Yrotation Zrotation
				JOINT Neck
				{
					OFFSET 0.000000 27.990097 -5.222700
					CHANNELS 3 Xrotation Yrotation Zrotation
					JOINT Head
					{
						OFFSET 0.000000 13.775101 3.679100
						CHANNELS 3 Xrotation Yrotation Zrotation
						JOINT HeadTop_End
						{
							OFFSET 0.000000 15.552994 1.514600
							CHANNELS 3 Xrotation Yrotation Zrotation
							End Site
							{
								OFFSET 0.000000 15.626572 0.000000
							}
						}
					}
				}
				JOINT LeftShoulder
				{
					OFFSET 7.127400 24.011505 -6.066400
					CHANNELS 3 Xrotation Yrotation Zrotation
					JOINT LeftArm
					{
						OFFSET 9.617100 -3.741608 -3.014900
						CHANNELS 3 Xrotation Yrotation Zrotation
						JOINT LeftForeArm
						{
							OFFSET 25.282101 0.000000 0.000000
							CHANNELS 3 Xrotation Yrotation Zrotation
							JOINT LeftHand
							{
								OFFSET 32.169903 0.000000 0.000000
								CHANNELS 3 Xrotation Yrotation Zrotation
								JOINT LeftHandMiddle1
								{
									OFFSET 15.036400 0.000000 0.000000
									CHANNELS 3 Xrotation Yrotation Zrotation
									JOINT LeftHandMiddle2
									{
										OFFSET 3.014999 0.000000 0.000000
										CHANNELS 3 Xrotation Yrotation Zrotation
										JOINT LeftHandMiddle3
										{
											OFFSET 3.481201 0.000000 0.000000
											CHANNELS 3 Xrotation Yrotation Zrotation
											JOINT LeftHandMiddle4
											{
												OFFSET 3.721100 0.000000 0.000000
												CHANNELS 3 Xrotation Yrotation Zrotation
												End Site
												{
													OFFSET 0.000000 3.721100 -0.000943
												}
											}
										}
									}
								}
								JOINT LeftHandThumb1
								{
									OFFSET 7.101097 -0.603729 5.031653
									CHANNELS 3 Xrotation Yrotation Zrotation
									JOINT LeftHandThumb2
									{
										OFFSET 1.347069 -0.777725 0.777729
										CHANNELS 3 Xrotation Yrotation Zrotation
										JOINT LeftHandThumb3
										{
											OFFSET 2.560364 -1.478226 1.478229
											CHANNELS 3 Xrotation Yrotation Zrotation
											JOINT LeftHandThumb4
											{
												OFFSET 2.726730 -1.574280 1.574277
												CHANNELS 3 Xrotation Yrotation Zrotation
												End Site
												{
													OFFSET 0.000282 3.520187 -0.000535
												}
											}
										}
									}
								}
								JOINT LeftHandIndex1
								{
									OFFSET 14.090698 0.503815 2.813673
									CHANNELS 3 Xrotation Yrotation Zrotation
									JOINT LeftHandIndex2
									{
										OFFSET 3.158096 0.000000 0.000000
										CHANNELS 3 Xrotation Yrotation Zrotation
										JOINT LeftHandIndex3
										{
											OFFSET 3.016296 0.000000 0.000000
											CHANNELS 3 Xrotation Yrotation Zrotation
											JOINT LeftHandIndex4
											{
												OFFSET 2.977798 0.000000 0.000000
												CHANNELS 3 Xrotation Yrotation Zrotation
												End Site
												{
													OFFSET 0.000000 2.977798 -0.000755
												}
											}
										}
									}
								}
								JOINT LeftHandRing1
								{
									OFFSET 14.766502 -0.001434 -3.312500
									CHANNELS 3 Xrotation Yrotation Zrotation
									JOINT LeftHandRing2
									{
										OFFSET 2.923698 0.000000 0.000000
										CHANNELS 3 Xrotation Yrotation Zrotation
										JOINT LeftHandRing3
										{
											OFFSET 2.949203 0.000000 0.000000
											CHANNELS 3 Xrotation Yrotation Zrotation
											JOINT LeftHandRing4
											{
												OFFSET 2.444374 0.000000 0.000000
												CHANNELS 3 Xrotation Yrotation Zrotation
												End Site
												{
													OFFSET -0.195000 2.436584 -0.002108
												}
											}
										}
									}
								}
								JOINT LeftHandPinky1
								{
									OFFSET 12.476501 0.513382 -5.217931
									CHANNELS 3 Xrotation Yrotation Zrotation
									End Site
									{
										OFFSET 0.000000 13.360992 -0.003386
									}
								}
							}
						}
					}
				}
				JOINT RightShoulder
				{
					OFFSET -7.127400 24.011505 -6.066400
					CHANNELS 3 Xrotation Yrotation Zrotation
					JOINT RightArm
					{
						OFFSET -9.617100 -3.741608 -3.014900
						CHANNELS 3 Xrotation Yrotation Zrotation
						JOINT RightForeArm
						{
							OFFSET -25.282101 0.000000 0.000000
							CHANNELS 3 Xrotation Yrotation Zrotation
							JOINT RightHand
							{
								OFFSET -32.169903 0.000000 0.000000
								CHANNELS 3 Xrotation Yrotation Zrotation
								End Site
								{
									OFFSET 0.000000 32.169891 0.000000
								}
							}
						}
					}
				}
			}
		}
	}
	JOINT LeftUpLeg
	{
		OFFSET 9.928400 -2.150398 0.101300
		CHANNELS 3 Xrotation Yrotation Zrotation
		JOINT LeftLeg
		{
			OFFSET 0.320535 -48.761749 0.790900
			CHANNELS 3 Xrotation Yrotation Zrotation
			JOINT LeftFoot
			{
				OFFSET -0.320535 -48.559753 -3.732300
				CHANNELS 3 Xrotation Yrotation Zrotation
				JOINT LeftToeBase
				{
					OFFSET 3.278900 -8.203400 10.883700
					CHANNELS 3 Xrotation Yrotation Zrotation
					JOINT LeftToe_End
					{
						OFFSET 2.222900 -0.243800 10.296400
						CHANNELS 3 Xrotation Yrotation Zrotation
						End Site
						{
							OFFSET 0.000000 10.536441 0.000000
						}
					}
				}
			}
		}
	}
	JOINT RightUpLeg
	{
		OFFSET -9.928400 -2.150398 0.101300
		CHANNELS 3 Xrotation Yrotation Zrotation
		JOINT RightLeg
		{
			OFFSET -0.320565 -48.761753 0.791800
			CHANNELS 3 Xrotation Yrotation Zrotation
			JOINT RightFoot
			{
				OFFSET 0.320565 -48.559750 -3.733200
				CHANNELS 3 Xrotation Yrotation Zrotation
				JOINT RightToeBase
				{
					OFFSET -3.278900 -8.203400 10.883700
					CHANNELS 3 Xrotation Yrotation Zrotation
					JOINT RightToe_End
					{
						OFFSET -2.222900 -0.243800 10.296400
						CHANNELS 3 Xrotation Yrotation Zrotation
						End Site
						{
							OFFSET 0.000000 10.536441 0.000000
						}
					}
				}
			}
		}
	}
}
MOTION
Frames: 7
Frame Time: 0.033333
0.269559 106.546524 -0.066837 -4.731934 5.099690 1.215145 9.075441 -5.073335 1.953033 2.905936 -1.464808 -1.430113 2.936853 -1.395272 -1.400196 -0.311547 -0.632714 3.236819 -13.641361 1.478887 -0.478430 -0.000000 0.000000 -0.000000 0.575624 -0.827661 -9.114500 -0.357111 -13.689474 -59.280318 0.000211 -80.746551 0.000217 -126.772477 8.383704 13.926055 -6.730855 3.639016 -68.429616 3.552727 5.382216 -66.834767 0.082054 -0.978122 9.590514 0.000001 0.000000 -0.000000 17.322229 -37.413997 18.619091 -12.533882 8.749656 -5.074192 -12.770399 4.523685 14.745210 -0.000000 0.000001 0.000002 -8.304923 2.722334 -67.324082 3.992663 5.549067 -71.451094 0.198071 -1.511899 14.925341 0.000000 0.000001 0.000000 -2.632373 5.165378 -67.562565 4.126264 5.591908 -72.827329 0.000034 0.021517 -0.209952 0.000002 0.000001 -0.000001 0.000002 0.000000 0.000003 8.074204 16.041775 -3.181127 6.913098 11.160259 62.195607 -0.000008 105.932648 0.000000 0.000002 0.000000 -0.000001 -24.203390 6.039359 0.637927 59.426122 2.948222 5.855403 0.002369 2.907580 -1.891760 0.005559 0.000001 0.000001 -0.000001 -0.000000 0.000000 -6.531616 -6.447674 3.912408 18.190626 -1.441372 -0.532440 -6.972135 2.387243 -5.177492 -0.128779 0.000001 0.000001 -0.000000 0.000000 0.000000 
0.517617 106.369690 -3.214350 -5.312825 4.452996 0.583938 9.338545 -5.147172 2.803388 2.925737 -1.502392 -1.289261 2.957012 -1.431737 -1.258646 -0.279470 -0.615656 3.271923 -14.385487 1.836721 -0.861170 -0.000000 -0.000000 0.000000 0.575625 -0.827662 -9.114500 -0.357112 -13.689474 -59.280311 0.000212 -80.746551 0.000204 -126.491483 8.077494 13.877128 -6.730853 3.639017 -68.429616 3.552728 5.382217 -66.834767 0.082054 -0.978125 9.590509 -0.000001 -0.000003 -0.000001 17.322227 -37.413990 18.619089 -12.533880 8.749656 -5.074191 -12.770399 4.523686 14.745217 0.000001 0.000001 -0.000001 -8.304927 2.722338 -67.324082 3.992667 5.549071 -71.451094 0.198069 -1.511901 14.925341 0.000001 0.000002 0.000001 -2.632372 5.165381 -67.562565 4.126262 5.591911 -72.827329 0.000036 0.021516 -0.209955 -0.000002 0.000001 -0.000000 0.000002 -0.000000 0.000000 8.074207 16.041775 -3.181127 6.884165 11.243005 62.239245 -0.000001 105.932655 -0.000005 -0.000002 0.000001 0.000001 -21.118069 5.563038 0.874233 61.116724 1.795922 5.598688 0.818466 2.305358 -5.975894 -0.298246 -0.000003 0.000003 0.000001 -0.000001 -0.000000 -7.678880 -8.231354 4.559123 18.224710 0.794246 -1.470462 -5.055869 1.888022 -5.066496 -0.128781 -0.000000 0.000001 -0.000000 -0.000000 -0.000000 
0.860360 106.042564 -6.533952 -5.636633 4.023768 0.293692 9.334510 -5.340658 3.272280 2.928659 -1.560182 -1.177039 2.960121 -1.489326 -1.145333 -0.284567 -0.563186 3.322006 -14.786934 2.362139 -1.053079 0.000000 0.000000 0.000000 0.575625 -0.827661 -9.114500 -0.357112 -13.689472 -59.280311 0.000226 -80.746551 0.000223 -126.242810 7.821174 13.834187 -6.730856 3.639014 -68.429616 3.552726 5.382217 -66.834767 0.082056 -0.978125 9.590511 -0.000001 -0.000001 -0.000000 17.322225 -37.413990 18.619084 -12.533882 8.749656 -5.074192 -12.770400 4.523686 14.745210 0.000002 -0.000000 0.000001 -8.304929 2.722333 -67.324082 3.992665 5.549069 -71.451094 0.198069 -1.511900 14.925343 -0.000000 0.000002 0.000000 -2.632374 5.165376 -67.562565 4.126261 5.591911 -72.827336 0.000034 0.021519 -0.209956 -0.000002 0.000000 0.000001 0.000000 -0.000000 -0.000002 8.074206 16.041775 -3.181128 6.885840 11.238243 62.236725 -0.000009 105.932648 -0.000002 0.000001 -0.000001 -0.000001 -18.272376 5.346559 0.680108 62.712188 0.011903 5.368593 1.608236 1.690454 -9.817512 -0.773166 -0.000007 0.000000 -0.000001 -0.000001 0.000000 -9.482351 -10.222105 4.817269 18.840052 3.021971 -2.560622 -3.325133 1.325919 -4.841566 -0.128775 -0.000001 0.000002 -0.000000 -0.000000 0.000000 
1.222841 105.705269 -9.891822 -5.866075 3.645278 0.108826 9.123523 -5.595424 3.559014 2.912348 -1.629729 -1.092957 2.943853 -1.558823 -1.060009 -0.233230 -0.529259 3.357627 -14.888445 2.563309 -1.106751 0.000000 -0.000000 0.000000 0.575626 -0.827662 -9.114500 -0.357112 -13.689473 -59.280318 0.000224 -80.746551 0.000224 -126.021143 7.603395 13.797044 -6.730853 3.639016 -68.429623 3.552731 5.382214 -66.834767 0.082055 -0.978126 9.590510 0.000003 0.000000 -0.000000 17.322224 -37.413994 18.619087 -12.533882 8.749656 -5.074193 -12.770396 4.523686 14.745209 -0.000002 -0.000002 0.000002 -8.304926 2.722336 -67.324082 3.992668 5.549067 -71.451094 0.198069 -1.511904 14.925341 0.000003 -0.000001 -0.000000 -2.632373 5.165376 -67.562572 4.126264 5.591910 -72.827329 0.000034 0.021517 -0.209954 -0.000001 -0.000000 -0.000001 0.000002 -0.000002 0.000000 8.074208 16.041775 -3.181127 6.902028 11.190020 62.212464 -0.000001 105.932648 -0.000002 -0.000001 -0.000001 -0.000001 -15.228860 5.287753 0.404048 63.438927 -1.542387 5.061167 2.494282 1.042365 -12.978690 -0.618579 0.000002 0.000001 -0.000001 0.000000 -0.000001 -11.150051 -12.083820 4.982082 18.945147 5.130280 -3.585393 -1.297901 0.794623 -4.593216 -0.128778 -0.000001 -0.000002 0.000000 -0.000000 -0.000000 
1.582890 105.351059 -13.284033 -6.008911 3.315335 0.013812 8.836756 -5.883060 3.762599 2.888677 -1.708986 -1.024203 2.920177 -1.638003 -0.989926 -0.149165 -0.505098 3.371098 -14.923724 2.660644 -1.206565 0.000000 0.000000 0.000000 0.575623 -0.827662 -9.114501 -0.357111 -13.689474 -59.280318 0.000198 -80.746551 0.000217 -125.818423 7.401665 13.764283 -6.730853 3.639021 -68.429616 3.552728 5.382217 -66.834774 0.082055 -0.978125 9.590510 0.000000 -0.000001 -0.000001 17.322224 -37.413990 18.619084 -12.533882 8.749656 -5.074194 -12.770399 4.523685 14.745214 -0.000001 -0.000001 0.000001 -8.304925 2.722338 -67.324082 3.992663 5.549069 -71.451094 0.198069 -1.511902 14.925340 -0.000000 -0.000001 -0.000000 -2.632374 5.165381 -67.562565 4.126267 5.591912 -72.827329 0.000034 0.021519 -0.209950 -0.000002 0.000001 0.000001 0.000001 0.000003 0.000002 8.074207 16.041775 -3.181128 6.912400 11.160865 62.196734 -0.000002 105.932648 0.000002 0.000001 0.000000 -0.000000 -11.907088 5.667726 0.160102 62.461349 -1.656760 4.733438 3.818644 0.452925 -14.604152 -0.254905 -0.000002 -0.000006 0.000001 0.000000 0.000000 -12.706512 -13.500219 5.018782 18.531193 6.848639 -4.317267 1.012126 0.375878 -4.359253 -0.128780 -0.000002 0.000001 -0.000000 0.000000 -0.000000 
1.934348 104.925133 -16.756329 -6.043056 3.060332 0.026918 8.496655 -6.222386 3.874243 2.860470 -1.802579 -0.972581 2.891932 -1.731461 -0.936865 -0.096475 -0.467307 3.374869 -15.124450 2.870624 -1.445343 -0.000000 0.000001 -0.000000 0.575624 -0.827661 -9.114500 -0.357112 -13.689474 -59.280311 0.000216 -80.746551 0.000216 -125.660891 7.245196 13.740042 -6.730854 3.639018 -68.429623 3.552728 5.382217 -66.834767 0.082055 -0.978126 9.590511 0.000003 0.000001 0.000000 17.322229 -37.413994 18.619082 -12.533882 8.749655 -5.074194 -12.770398 4.523687 14.745214 -0.000001 0.000000 -0.000001 -8.304928 2.722338 -67.324082 3.992666 5.549068 -71.451094 0.198069 -1.511904 14.925341 0.000001 0.000001 0.000000 -2.632373 5.165379 -67.562572 4.126265 5.591910 -72.827329 0.000033 0.021515 -0.209950 -0.000001 -0.000000 0.000001 0.000001 0.000002 -0.000002 8.074207 16.041775 -3.181127 6.912393 11.160880 62.196789 0.000003 105.932648 -0.000006 -0.000001 0.000000 -0.000000 -7.344490 6.944990 -0.151833 58.651476 -2.726751 4.701727 4.534046 0.207636 -13.842715 -3.782763 0.000004 -0.000003 0.000003 0.000000 0.000000 -14.703608 -14.132866 4.746027 18.652162 7.749564 -4.590619 1.884989 0.233426 -4.196963 -0.119105 -0.000001 -0.000000 -0.000000 -0.000000 -0.000000 
2.258118 104.416809 -20.318596 -5.966958 2.894372 0.107185 8.151831 -6.654320 3.948564 2.830162 -1.923863 -0.944833 2.861601 -1.852334 -0.907486 -0.068569 -0.417904 3.376262 -15.420648 3.165487 -1.716867 -0.000000 0.000000 -0.000000 0.575625 -0.827662 -9.114499 -0.357112 -13.689472 -59.280318 0.000232 -80.746551 0.000225 -125.601810 7.198863 13.730897 -6.730856 3.639016 -68.429623 3.552726 5.382216 -66.834774 0.082057 -0.978123 9.590512 0.000002 0.000002 0.000001 17.322222 -37.413994 18.619092 -12.533880 8.749654 -5.074192 -12.770397 4.523686 14.745210 0.000000 -0.000001 0.000003 -8.304929 2.722334 -67.324082 3.992666 5.549070 -71.451094 0.198069 -1.511903 14.925340 0.000000 -0.000000 0.000000 -2.632374 5.165378 -67.562565 4.126261 5.591910 -72.827329 0.000034 0.021515 -0.209954 0.000001 -0.000002 0.000001 -0.000000 -0.000002 -0.000000 8.074207 16.041773 -3.181127 6.912392 11.160874 62.196782 -0.000001 105.932648 -0.000003 -0.000001 0.000000 -0.000001 -2.194254 8.529548 -0.605016 52.435287 -3.904440 4.618107 3.862936 0.116261 -11.504241 -10.976843 0.000002 -0.000001 -0.000000 -0.000000 -0.000000 -17.291635 -14.258656 4.244471 19.477104 8.025609 -4.595043 2.062722 0.258700 -4.118765 -0.108310 -0.000000 -0.000001 0.000000 -0.000000 -0.000000 
